<svg width="20" height="20" fill="none" xmlns="http://www.w3.org/2000/svg" class="FEC76vvL" viewBox="0 0 20 20"><path d="M15.58 8.58c0 .1 0 .21-.01.31v.13l-.01.06c-.04.44-.13.8-.27 1.22-.02.08-.06.15-.12.21h.01c-.04.07-.07.13-.1.19a.37.37 0 01-.05.11c-.07.11-.09.14-.13.23-.01.04-.03.07-.05.1-.67 1.09-1.71 2.14-2.56 2.91-.43.39-.83.72-1.12.97-.13.1-.25.19-.33.26l-.03.03-.11.08h-.01l-.01.02h-.01c-.1.11-.33.33-.67.41h-.01c-.09.04-.19.07-.29.08-.58.08-.95-.23-1.11-.37l-.03-.03c-.64-.45-1.27-.93-1.87-1.43-.98-.83-2.16-1.95-2.84-3.13-.14-.24-.26-.5-.36-.77-.11-.29-.2-.59-.25-.89h-.01v-.06l-.02-.14c-.29-2.05.92-4.16 2.92-4.45.15-.02.29-.03.43-.03.88 0 1.7.36 2.41.99.14.13.23.31.23.5l.02 1.29 1.3.96c.14.1.23.26.26.44.03.17-.01.35-.12.5l-.94 1.32.63 1.34c.07.17.08.35.02.51a.69.69 0 01-.35.38c-.16.08-.34.09-.51.03a.67.67 0 01-.38-.34l-.81-1.7a.702.702 0 01-.06-.35c.01-.12.05-.23.12-.33l.79-1.11-1.02-.76a.55.55 0 01-.2-.23.641.641 0 01-.08-.3l-.02-1.31c-.43-.32-.86-.47-1.28-.47-.08 0-.17 0-.25.02-1.07.15-1.98 1.39-1.77 2.92l.02.1v.02s.01.05.01.08c.03.14.09.36.18.59.09.26.19.46.24.55h.01c.57.98 1.6 1.98 2.55 2.79.54.45 1.09.87 1.66 1.28l.03.02c.07.06.16.12.2.15.03.03.06.05.09.07.03-.01.07-.02.11-.03l.09-.09c.05-.04.13-.11.2-.16l.02-.02.03-.03.32-.26c.36-.29.72-.6 1.07-.91.81-.74 1.72-1.67 2.29-2.58.06-.13.11-.23.19-.36.03-.06.06-.13.09-.19.02-.04.05-.09.09-.14.09-.31.14-.53.17-.78v-.2c.12-1.49-.85-2.63-1.89-2.7h-.12c-.57 0-1.19.26-1.49.68-.05.07-.11.14-.19.18a.55.55 0 01-.25.1c-.09.02-.18.02-.27 0a.545.545 0 01-.24-.12.54.54 0 01-.18-.19.825.825 0 01-.1-.26.576.576 0 01.02-.26c.02-.09.06-.17.11-.24.6-.84 1.67-1.25 2.59-1.25.08 0 .15 0 .22.01 1.87.12 3.16 1.92 3.16 3.83z" fill="white"></path></svg>