<svg viewBox="0 0 32 32" fill="none" xmlns="http://www.w3.org/2000/svg" width="1em" height="1em" focusable="false" style="font-size:32px"><path d="M9 12C7.89543 12 7 12.8955 7 14V18C7 19.1046 7.89543 20 9 20H10L14.3598 23.6332C15.0111 24.176 16 23.7128 16 22.865V9.13509C16 8.28725 15.0111 7.8241 14.3598 8.36687L10 12H9Z" fill="white"></path><path d="M23.5006 20.5038L21.002 17.5496L18.5034 20.5038L17.0006 19.188L19.6942 16.0033L17 12.8178L18.5028 11.502L21.002 14.457L23.5012 11.502L25.004 12.8178L22.3098 16.0033L25.0034 19.188L23.5006 20.5038Z" fill="white"></path></svg>