<svg xmlns="http://www.w3.org/2000/svg" xmlns:xlink="http://www.w3.org/1999/xlink" viewBox="0 0 72 72" width="72" height="72" preserveAspectRatio="xMidYMid meet" style="width: 32px; height: 32px; transform: translate3d(0px, 0px, 0px); content-visibility: visible;"><defs><clipPath id="__lottie_element_20243"><rect width="72" height="72" x="0" y="0"></rect></clipPath></defs><g clip-path="url(#__lottie_element_20243)"><g transform="matrix(2.160879135131836,-0.3791291415691376,0.3791291415691376,2.160879135131836,4.328714370727539,16.284549713134766)" opacity="0.9" style="display: none;"><g opacity="1" transform="matrix(1,0,0,1,12.25,10.25)"><path fill="rgb(255,255,255)" fill-opacity="1" d=" M-4,-10 C-4,-10 4,-10 4,-10 C8.418000221252441,-10 12,-6.418000221252441 12,-2 C12,-2 12,2 12,2 C12,6.418000221252441 8.418000221252441,10 4,10 C4,10 -4,10 -4,10 C-8.418000221252441,10 -12,6.418000221252441 -12,2 C-12,2 -12,-2 -12,-2 C-12,-6.418000221252441 -8.418000221252441,-10 -4,-10z M4.5,0.8659999966621399 C5.166999816894531,0.48100000619888306 5.166999816894531,-0.48100000619888306 4.5,-0.8659999966621399 C4.5,-0.8659999966621399 -1.5,-4.329999923706055 -1.5,-4.329999923706055 C-2.1670000553131104,-4.715000152587891 -3,-4.234000205993652 -3,-3.4639999866485596 C-3,-3.4639999866485596 -3,3.4639999866485596 -3,3.4639999866485596 C-3,4.234000205993652 -2.1670000553131104,4.715000152587891 -1.5,4.329999923706055 C-1.5,4.329999923706055 4.5,0.8659999966621399 4.5,0.8659999966621399z"></path></g></g><g style="display: block;" transform="matrix(2.105607748031616,0,0,2.105607748031616,10.206304550170898,12.39837646484375)" opacity="0.9"><g opacity="1" transform="matrix(1,0,0,1,12.25,10.25)"><path fill="rgb(255,255,255)" fill-opacity="1" d=" M-4,-10 C-4,-10 4,-10 4,-10 C8.418000221252441,-10 12,-6.418000221252441 12,-2 C12,-2 12,2 12,2 C12,6.418000221252441 8.418000221252441,10 4,10 C4,10 -4,10 -4,10 C-8.418000221252441,10 -12,6.418000221252441 -12,2 C-12,2 -12,-2 -12,-2 C-12,-6.418000221252441 -8.418000221252441,-10 -4,-10z M4.5,0.8659999966621399 C5.166999816894531,0.48100000619888306 5.166999816894531,-0.48100000619888306 4.5,-0.8659999966621399 C4.5,-0.8659999966621399 -1.5,-4.329999923706055 -1.5,-4.329999923706055 C-2.1670000553131104,-4.715000152587891 -3,-4.234000205993652 -3,-3.4639999866485596 C-3,-3.4639999866485596 -3,3.4639999866485596 -3,3.4639999866485596 C-3,4.234000205993652 -2.1670000553131104,4.715000152587891 -1.5,4.329999923706055 C-1.5,4.329999923706055 4.5,0.8659999966621399 4.5,0.8659999966621399z"></path></g></g></g></svg>
