<svg viewBox="0 0 32 32" fill="none" xmlns="http://www.w3.org/2000/svg" width="1em" height="1em" focusable="false" style="font-size:32px"><path d="M7 13.8669C7 12.7623 7.89543 11.8669 9 11.8669H10L14.3598 8.23369C15.0111 7.69092 16 8.15407 16 9.00191V22.7318C16 23.5797 15.0111 24.0428 14.3598 23.5L10 19.8669H9C7.89543 19.8669 7 18.9714 7 17.8669V13.8669Z" fill="#fff"></path><path d="M18 18.8669L18 12.8669C19.6569 12.8669 21 14.21 21 15.8669C21 17.5237 19.6569 18.8669 18 18.8669Z" fill="#fff"></path><path d="M25.25 15.8668C25.25 19.9791 22.0472 23.3432 18 23.601L18 21.0933C20.665 20.8415 22.75 18.5977 22.75 15.8668C22.75 13.136 20.665 10.8921 18 10.6403V8.13269C22.0472 8.3904 25.25 11.7546 25.25 15.8668Z" fill="gray"></path></svg>